<svg width="16" height="16" viewBox="0 0 16 16" fill="none" xmlns="http://www.w3.org/2000/svg">
<g clip-path="url(#clip0_2910_28386)">
<path d="M8 16C12.4112 16 16 12.4112 16 8C16 3.5888 12.4112 0 8 0C3.5888 0 0 3.5888 0 8C0 12.4112 3.5888 16 8 16ZM13.2174 8C13.2174 10.8769 10.8769 13.2174 8 13.2174C7.06588 13.2174 6.18915 12.9695 5.42991 12.5377L12.5377 5.42991C12.9695 6.18915 13.2174 7.06588 13.2174 8ZM8 2.78261C8.93412 2.78261 9.81085 3.03054 10.5701 3.46233L3.46233 10.5701C3.03054 9.81085 2.78261 8.93412 2.78261 8C2.78261 5.12313 5.12313 2.78261 8 2.78261Z" fill="black"/>
</g>
<defs>
<clipPath id="clip0_2910_28386">
<rect width="16" height="16" fill="white"/>
</clipPath>
</defs>
</svg>
