<svg width="16" height="16" viewBox="0 0 16 16" fill="none" xmlns="http://www.w3.org/2000/svg">
<g clip-path="url(#clip0_2910_28380)">
<path d="M14.2222 4.30937L13.2097 5.32187L10.6785 2.7875L11.691 1.775C11.8972 1.56875 12.2566 1.56875 12.4628 1.775L14.2222 3.5375C14.4347 3.75 14.4347 4.09687 14.2222 4.30937ZM5.76284 12.7781L3.23159 10.2437L9.77534 3.69062L12.3066 6.225L5.76284 12.7781ZM2.64722 11.4656L4.54097 13.3625L1.90347 14.1062L2.64722 11.4656ZM15.1253 2.63437L13.366 0.871872C13.0222 0.528122 11.7816 -0.121878 10.791 0.871872L1.87534 9.79375C1.79722 9.87187 1.74097 9.96562 1.71284 10.0719L0.369094 14.8562C0.306594 15.0781 0.372219 15.3156 0.531594 15.4812C0.694094 15.6469 1.01909 15.675 1.15659 15.6437L5.93784 14.2969C6.04409 14.2687 6.13784 14.2125 6.21597 14.1344L15.1253 5.2125C15.8347 4.50312 15.8347 3.34687 15.1253 2.63437Z" fill="black"/>
</g>
<defs>
<clipPath id="clip0_2910_28380">
<rect width="16" height="16" fill="white"/>
</clipPath>
</defs>
</svg>
