<svg width="16" height="16" viewBox="0 0 16 16" fill="none" xmlns="http://www.w3.org/2000/svg">
<g clip-path="url(#clip0_2910_28361)">
<path d="M15.6415 3.55364L12.6121 0.524211C12.3825 0.294676 12.0712 0.165749 11.7466 0.165749H11.2415V4.69417C11.2415 4.99735 10.9957 5.24312 10.6925 5.24312H3.38687C3.08369 5.24312 2.83791 4.99735 2.83791 4.69417V0.165695H1.22391C0.54798 0.165695 0 0.713676 0 1.38966V14.6104C0 15.2863 0.54798 15.8343 1.22391 15.8343H14.7761C15.452 15.8343 16 15.2863 16 14.6104V4.4191C16 4.09453 15.8711 3.78318 15.6415 3.55364Z" fill="black"/>
<path d="M8.88443 4.16016H9.82298C10.0124 4.16016 10.1659 4.00659 10.1659 3.81724V1.2903C10.1659 1.10089 10.0124 0.94738 9.82298 0.94738H8.88443C8.69502 0.94738 8.54151 1.10089 8.54151 1.2903V3.81724C8.54151 4.00659 8.69507 4.16016 8.88443 4.16016Z" fill="black"/>
</g>
<defs>
<clipPath id="clip0_2910_28361">
<rect width="16" height="16" fill="white"/>
</clipPath>
</defs>
</svg>
