<svg width="16" height="16" viewBox="0 0 16 16" fill="none" xmlns="http://www.w3.org/2000/svg">
<path d="M10 4.15C9.63205 4.15 9.33339 3.8364 9.33339 3.45V2.4H6.66672V3.45C6.66672 3.8364 6.36805 4.15 6.00005 4.15C5.63205 4.15 5.33338 3.8364 5.33338 3.45V2.4C5.33338 1.6279 5.93139 1 6.66672 1H9.33339C10.0687 1 10.6667 1.6279 10.6667 2.4V3.45C10.6667 3.8364 10.3681 4.15 10 4.15Z" fill="black"/>
<path d="M8.47334 10.366C8.35334 10.415 8.18 10.45 8 10.45C7.82 10.45 7.64667 10.415 7.48667 10.352L0 7.73401V13.0751C0 14.1391 0.82 15 1.83333 15H14.1666C15.18 15 16 14.1391 16 13.0751V7.73401L8.47334 10.366Z" fill="black"/>
<path d="M16 5.02499V6.62799L8.16001 9.372C8.10667 9.393 8.05334 9.39999 8 9.39999C7.94667 9.39999 7.89334 9.393 7.84 9.372L0 6.62799V5.02499C0 3.96099 0.82 3.09999 1.83333 3.09999H14.1666C15.18 3.09999 16 3.96099 16 5.02499Z" fill="black"/>
</svg>
