<svg width="17" height="14" viewBox="0 0 17 14" fill="none" xmlns="http://www.w3.org/2000/svg">
<path d="M10.1028 3.0775C9.73102 3.0775 9.42929 2.77112 9.42929 2.39362V1.3678H6.73522V2.39362C6.73522 2.77112 6.43348 3.0775 6.0617 3.0775C5.68992 3.0775 5.38818 2.77112 5.38818 2.39362V1.3678C5.38818 0.613485 5.99233 4.57764e-05 6.73522 4.57764e-05H9.42929C10.1722 4.57764e-05 10.7763 0.613485 10.7763 1.3678V2.39362C10.7763 2.77112 10.4746 3.0775 10.1028 3.0775Z" fill="#000"/>
<path d="M8.5604 9.15035C8.43917 9.19822 8.26405 9.23241 8.0822 9.23241C7.90035 9.23241 7.72524 9.19822 7.5636 9.13667L0 6.57896V11.797C0 12.8365 0.828426 13.6776 1.85217 13.6776H14.3122C15.336 13.6776 16.1644 12.8365 16.1644 11.797V6.57896L8.5604 9.15035Z" fill="#000"/>
<path d="M16.1644 3.93233V5.49841L8.24385 8.17922C8.18997 8.19974 8.13609 8.20657 8.0822 8.20657C8.02832 8.20657 7.97444 8.19974 7.92056 8.17922L0 5.49841V3.93233C0 2.89284 0.828426 2.05167 1.85217 2.05167H14.3122C15.336 2.05167 16.1644 2.89284 16.1644 3.93233Z" fill="#000"/>
</svg>
