<svg width="16" height="16" viewBox="0 0 16 16" fill="none" xmlns="http://www.w3.org/2000/svg">
<g clip-path="url(#clip0_2917_28376)">
<path d="M16 13.98V4.49356L11.0905 0H5.09008C3.88501 0 2.9081 0.894149 2.9081 1.99714V9.55787H3.99909V1.99714C3.99909 1.44564 4.48755 0.99857 5.09008 0.99857H11.0905V2.99571C11.0905 3.82295 11.8232 4.49356 12.727 4.49356H14.909V13.98C14.909 14.4475 14.558 14.8399 14.0841 14.9486V15.9624C15.1637 15.8423 16 15.0005 16 13.98Z" fill="black"/>
<path d="M1.3267 15.9228L0.0351909 15.9298C0.0117303 15.9298 0 15.9181 0 15.8947L0.0140764 10.9545C0.0140764 10.9357 0.0234606 10.9264 0.0422291 10.9264L1.39004 10.9193C1.65749 10.9123 1.89914 10.9732 2.11497 11.1019C2.33316 11.2307 2.50677 11.4051 2.6358 11.6251C2.76718 11.8428 2.83287 12.0839 2.83287 12.3484V14.413C2.83287 14.6892 2.76601 14.942 2.63228 15.1714C2.49621 15.3984 2.31556 15.5798 2.09034 15.7156C1.86512 15.849 1.61057 15.9181 1.3267 15.9228ZM1.39004 11.7796L0.886811 11.7866L0.879773 15.045H1.3267C1.505 15.045 1.65515 14.9829 1.77714 14.8589C1.89914 14.7348 1.96013 14.5862 1.96013 14.413V12.3414C1.96013 12.1892 1.90383 12.057 1.79122 11.9446C1.67861 11.8299 1.54488 11.7749 1.39004 11.7796Z" fill="black"/>
<path d="M5.75724 15.9298H3.4276C3.40883 15.9298 3.39944 15.9181 3.39944 15.8947L3.40648 10.9545C3.40648 10.9357 3.41587 10.9264 3.43463 10.9264H5.7502C5.76897 10.9264 5.77835 10.9381 5.77835 10.9615V11.7655C5.77835 11.7843 5.76897 11.7936 5.7502 11.7936H4.27218V12.9172H5.7502C5.76897 12.9172 5.77835 12.9266 5.77835 12.9453L5.78539 13.7599C5.78539 13.7786 5.776 13.788 5.75724 13.788H4.27218V15.045H5.75724C5.776 15.045 5.78539 15.0567 5.78539 15.0801V15.9017C5.78539 15.9204 5.776 15.9298 5.75724 15.9298Z" fill="black"/>
<path d="M7.75256 16C7.49215 16 7.25402 15.9345 7.03819 15.8034C6.82469 15.6723 6.6546 15.4967 6.52792 15.2767C6.40358 15.0543 6.34141 14.8074 6.34141 14.5358L6.34844 12.2922C6.34844 12.0254 6.40944 11.7843 6.53144 11.5689C6.65343 11.3512 6.82117 11.1768 7.03467 11.0457C7.2505 10.9123 7.4898 10.8456 7.75256 10.8456C8.02001 10.8456 8.25814 10.91 8.46694 11.0387C8.67808 11.1675 8.84583 11.3419 8.97017 11.5619C9.09685 11.7796 9.1602 12.023 9.1602 12.2922V12.6223C9.1602 12.641 9.15081 12.6503 9.13205 12.6503H8.32265C8.30389 12.6503 8.2945 12.641 8.2945 12.6223V12.2922C8.2945 12.133 8.24289 11.9961 8.13966 11.8814C8.03643 11.7667 7.9074 11.7094 7.75256 11.7094C7.5813 11.7094 7.44992 11.7679 7.35842 11.8849C7.26693 12.002 7.22118 12.1377 7.22118 12.2922V14.5358C7.22118 14.7114 7.27279 14.8554 7.37602 14.9677C7.47924 15.0777 7.60476 15.1327 7.75256 15.1327C7.9074 15.1327 8.03643 15.0719 8.13966 14.9502C8.24289 14.8261 8.2945 14.688 8.2945 14.5358V14.2023C8.2945 14.1836 8.30389 14.1742 8.32265 14.1742H9.13908C9.15785 14.1742 9.16724 14.1836 9.16724 14.2023V14.5358C9.16724 14.805 9.10389 15.0508 8.97721 15.2732C8.84817 15.4932 8.67808 15.67 8.46694 15.8034C8.25579 15.9345 8.01767 16 7.75256 16Z" fill="black"/>
<path d="M10.5362 15.9298H9.71973C9.70097 15.9298 9.69158 15.9181 9.69158 15.8947L9.70566 10.9615C9.70566 10.9381 9.71504 10.9264 9.73381 10.9264H10.5432C10.562 10.9264 10.5714 10.9381 10.5714 10.9615V12.6644L11.701 10.9545C11.7198 10.9357 11.7373 10.9264 11.7538 10.9264H12.5808C12.6019 10.9264 12.6066 10.9357 12.5948 10.9545L11.3491 12.9383L12.7462 15.9017C12.7579 15.9204 12.7462 15.9298 12.711 15.9298H11.8312C11.8077 15.9298 11.7937 15.9204 11.789 15.9017L10.8142 13.788L10.5643 14.1812V15.8947C10.5643 15.9181 10.5549 15.9298 10.5362 15.9298Z" fill="black"/>
</g>
<defs>
<clipPath id="clip0_2917_28376">
<rect width="16" height="16" fill="white"/>
</clipPath>
</defs>
</svg>
