<svg width="16" height="16" viewBox="0 0 16 16" fill="none" xmlns="http://www.w3.org/2000/svg">
<path d="M0 7.99998C0 3.58171 3.58172 -1.52588e-05 8 -1.52588e-05C12.4183 -1.52588e-05 16 3.58171 16 7.99998C16 12.4183 12.4183 16 8 16C3.58172 16 0 12.4183 0 7.99998ZM7.5 1.07654C6.83057 1.28126 6.16462 1.89721 5.61275 2.93197C5.43997 3.25593 5.283 3.61361 5.14499 3.99998H7.5V1.07654ZM4.08954 3.99998C4.26796 3.44137 4.48325 2.92477 4.73039 2.46138C4.90911 2.12629 5.10862 1.81239 5.32726 1.52834C4.08119 2.04352 3.01629 2.90811 2.25469 3.99998H4.08954ZM3.50845 7.49998C3.53819 6.62315 3.6457 5.78168 3.82001 4.99998H1.67363C1.30933 5.76685 1.08035 6.61047 1.01758 7.49998H3.50845ZM4.84686 4.99998C4.66006 5.76496 4.54152 6.60776 4.50906 7.49998H7.5V4.99998H4.84686ZM8.5 4.99998V7.49998H11.4909C11.4585 6.60776 11.3399 5.76496 11.1531 4.99998H8.5ZM4.50906 8.49998C4.54152 9.39219 4.66006 10.235 4.84686 11H7.5V8.49998H4.50906ZM8.5 8.49998V11H11.1531C11.3399 10.235 11.4585 9.39219 11.4909 8.49998H8.5ZM5.14499 12C5.283 12.3863 5.43997 12.744 5.61275 13.068C6.16462 14.1027 6.83057 14.7187 7.5 14.9234V12H5.14499ZM5.32726 14.4716C5.10863 14.1876 4.90911 13.8737 4.73039 13.5386C4.48325 13.0752 4.26796 12.5586 4.08954 12H2.25469C3.01629 13.0918 4.08119 13.9564 5.32726 14.4716ZM3.82001 11C3.6457 10.2183 3.53819 9.3768 3.50845 8.49998H1.01758C1.08035 9.38948 1.30933 10.2331 1.67363 11H3.82001ZM10.6727 14.4716C11.9188 13.9564 12.9837 13.0918 13.7453 12H11.9104C11.732 12.5586 11.5167 13.0752 11.2696 13.5386C11.0909 13.8737 10.8914 14.1876 10.6727 14.4716ZM8.5 12V14.9234C9.16942 14.7187 9.83537 14.1027 10.3872 13.068C10.56 12.744 10.717 12.3863 10.855 12H8.5ZM12.18 11H14.3264C14.6907 10.2331 14.9196 9.38948 14.9824 8.49998H12.4915C12.4618 9.3768 12.3543 10.2183 12.18 11ZM14.9824 7.49998C14.9196 6.61047 14.6907 5.76685 14.3264 4.99998H12.18C12.3543 5.78168 12.4618 6.62315 12.4915 7.49998H14.9824ZM11.2696 2.46138C11.5167 2.92477 11.732 3.44137 11.9104 3.99998H13.7453C12.9837 2.90811 11.9188 2.04352 10.6727 1.52833C10.8914 1.81239 11.0909 2.12629 11.2696 2.46138ZM10.855 3.99998C10.717 3.61361 10.56 3.25593 10.3872 2.93197C9.83537 1.89721 9.16942 1.28126 8.5 1.07654V3.99998H10.855Z" fill="black"/>
</svg>
