<svg xmlns="http://www.w3.org/2000/svg" width="11.501" height="11.501" viewBox="0 0 11.501 11.501">
  <g id="link" transform="translate(0 0)">
    <g id="Group_576" data-name="Group 576" transform="translate(3.868 0)">
      <g id="Group_575" data-name="Group 575" transform="translate(0 0)">
        <path id="Path_1491" data-name="Path 1491" d="M179,.789a2.7,2.7,0,0,0-3.812,0l-2.253,2.253a2.721,2.721,0,0,0,0,3.812,2.565,2.565,0,0,0,.542.411l.411-.411a.926.926,0,0,0,.17-.813,1.3,1.3,0,0,1-.17-.14,1.362,1.362,0,0,1,0-1.906l2.253-2.253a1.348,1.348,0,0,1,1.906,1.906l-1.489,1.489a3.88,3.88,0,0,1,.169,1.734c.006-.006.014-.01.021-.017L179,4.6A2.7,2.7,0,0,0,179,.789Z" transform="translate(-172.159 0)" fill="#000"/>
      </g>
    </g>
    <g id="Group_578" data-name="Group 578" transform="translate(0 4.061)">
      <g id="Group_577" data-name="Group 577">
        <path id="Path_1492" data-name="Path 1492" d="M7.03,181.187a2.566,2.566,0,0,0-.542-.411l-.411.411a.926.926,0,0,0-.17.813,1.3,1.3,0,0,1,.17.14,1.362,1.362,0,0,1,0,1.906l-2.428,2.428a1.348,1.348,0,0,1-1.906-1.906L3.407,182.9a3.879,3.879,0,0,1-.169-1.734c-.006.006-.014.011-.021.017L.79,183.615A2.7,2.7,0,0,0,4.6,187.427L7.03,185A2.72,2.72,0,0,0,7.03,181.187Z" transform="translate(0 -180.776)" fill="#000"/>
      </g>
    </g>
  </g>
</svg>
