<svg width="16" height="16" viewBox="0 0 16 16" fill="none" xmlns="http://www.w3.org/2000/svg">
<g clip-path="url(#clip0_2917_28345)">
<path d="M14.8983 1.09764C14.1942 0.395929 13.2407 0.00190735 12.2467 0.00190735C11.2526 0.00190735 10.2992 0.395929 9.5951 1.09764L6.46075 4.23198C5.76608 4.93974 5.37691 5.89186 5.37691 6.88357C5.37691 7.87529 5.76608 8.82741 6.46075 9.53517C6.6856 9.75839 6.93918 9.95067 7.21479 10.1069L7.78656 9.53517C7.91132 9.37808 7.99766 9.19402 8.03872 8.99766C8.07978 8.8013 8.07442 8.59806 8.02305 8.40414C7.93885 8.34602 7.85974 8.28087 7.78656 8.20937C7.43971 7.85523 7.24546 7.37927 7.24546 6.88357C7.24546 6.38788 7.43971 5.91192 7.78656 5.55778L10.9209 2.42344C11.2748 2.08303 11.7481 1.89501 12.2391 1.89978C12.7302 1.90455 13.1997 2.10173 13.547 2.44896C13.8942 2.79618 14.0914 3.26575 14.0962 3.75678C14.1009 4.24781 13.9129 4.72113 13.5725 5.07504L11.501 7.14651C11.7612 7.92239 11.8416 8.74729 11.7361 9.55882C11.7445 9.55047 11.7556 9.54491 11.7653 9.53517L14.8983 6.39944C15.5996 5.69544 15.9933 4.74224 15.9933 3.74854C15.9933 2.75485 15.5996 1.80164 14.8983 1.09764Z" fill="black"/>
<path d="M9.78012 6.22137C9.55527 5.99816 9.3017 5.80588 9.0261 5.6496L8.45432 6.22137C8.32956 6.37846 8.24321 6.56251 8.20215 6.75887C8.16109 6.95524 8.16646 7.15848 8.21782 7.3524C8.30202 7.41052 8.38114 7.47567 8.45432 7.54717C8.80117 7.90131 8.99542 8.37727 8.99542 8.87297C8.99542 9.36867 8.80117 9.84463 8.45432 10.1988L5.07653 13.5766C4.72262 13.917 4.24931 14.105 3.75828 14.1002C3.26725 14.0955 2.79768 13.8983 2.45045 13.551C2.10322 13.2038 1.90604 12.7342 1.90127 12.2432C1.8965 11.7522 2.08452 11.2789 2.42493 10.925L4.73986 8.60446C4.47959 7.82859 4.3992 7.00369 4.50475 6.19216C4.49641 6.2005 4.48528 6.20746 4.47554 6.2158L1.09914 9.59917C0.466387 10.3155 0.130534 11.2462 0.159989 12.2015C0.189444 13.1569 0.581992 14.0651 1.25767 14.7411C1.93335 15.4171 2.84134 15.8102 3.79667 15.8401C4.75201 15.8701 5.68284 15.5347 6.39955 14.9024L9.78012 11.526C10.4755 10.8183 10.8652 9.86583 10.8652 8.87367C10.8652 7.88151 10.4755 6.92902 9.78012 6.22137Z" fill="black"/>
</g>
<defs>
<clipPath id="clip0_2917_28345">
<rect width="16" height="16" fill="white"/>
</clipPath>
</defs>
</svg>
