<svg id="upload" xmlns="http://www.w3.org/2000/svg" width="15.627" height="16.669" viewBox="0 0 15.627 16.669">
  <g id="Group_566" data-name="Group 566" transform="translate(3.646)">
    <g id="Group_565" data-name="Group 565">
      <path id="Path_1488" data-name="Path 1488" d="M136.2,4.345,132.557.178a.52.52,0,0,0-.783,0l-3.646,4.167a.521.521,0,0,0,.392.864H130.6v6.772a.521.521,0,0,0,.521.521h2.084a.521.521,0,0,0,.521-.521V5.209h2.084a.521.521,0,0,0,.392-.864Z" transform="translate(-127.998 0)" fill="#fff"/>
    </g>
  </g>
  <g id="Group_568" data-name="Group 568" transform="translate(0 11.46)">
    <g id="Group_567" data-name="Group 567">
      <path id="Path_1489" data-name="Path 1489" d="M29.543,352v3.125H18.084V352H16v4.167a1.041,1.041,0,0,0,1.042,1.042H30.585a1.041,1.041,0,0,0,1.042-1.042V352Z" transform="translate(-16 -352)" fill="#fff"/>
    </g>
  </g>
</svg>
