<svg width="16" height="16" viewBox="0 0 16 16" fill="none" xmlns="http://www.w3.org/2000/svg">
<path d="M8.00001 0C3.58 0 0 3.673 0 8.20302C0 11.828 2.292 14.9021 5.47001 15.9859C5.87 16.0631 6.01667 15.8092 6.01667 15.5915C6.01667 15.3967 6.01001 14.8806 6.00667 14.1967C3.78133 14.6913 3.312 13.0962 3.312 13.0962C2.948 12.1494 2.422 11.8962 2.422 11.8962C1.69734 11.3877 2.478 11.3982 2.478 11.3982C3.28133 11.4551 3.70334 12.2434 3.70334 12.2434C4.41667 13.4976 5.576 13.1351 6.03333 12.9258C6.10533 12.395 6.31134 12.0339 6.54 11.8287C4.76334 11.6235 2.896 10.9181 2.896 7.77521C2.896 6.87992 3.206 6.1481 3.71933 5.57419C3.62934 5.36689 3.35934 4.53281 3.78934 3.40309C3.78934 3.40309 4.45934 3.18327 5.98934 4.24412C6.62934 4.06187 7.30934 3.97143 7.98933 3.96726C8.66934 3.97143 9.34934 4.06187 9.98938 4.24412C11.5093 3.18327 12.1793 3.40309 12.1793 3.40309C12.6093 4.53281 12.3393 5.36689 12.2594 5.57419C12.7693 6.1481 13.0793 6.87992 13.0793 7.77521C13.0793 10.9265 11.2094 11.62 9.42934 11.8217C9.70931 12.068 9.9693 12.571 9.9693 13.3397C9.9693 14.4374 9.95935 15.3195 9.95935 15.5859C9.95935 15.8008 10.0993 16.0576 10.5094 15.9755C13.71 14.8986 16 11.8224 16 8.20302C16 3.673 12.418 0 8.00001 0Z" fill="black"/>
</svg>
