<svg width="16" height="16" viewBox="0 0 16 16" fill="none" xmlns="http://www.w3.org/2000/svg">
<path d="M15.996 16L16 15.9993V10.1313C16 7.26064 15.382 5.04931 12.0262 5.04931C10.413 5.04931 9.33037 5.93464 8.8884 6.77398H8.84173V5.31731H5.65992V15.9993H8.97306V10.71C8.97306 9.31735 9.23704 7.97064 10.9616 7.97064C12.6608 7.97064 12.6862 9.55998 12.6862 10.7993V16H15.996Z" fill="black"/>
<path d="M0.264487 5.31799H3.58163V16H0.264487V5.31799Z" fill="black"/>
<path d="M1.92122 0C0.86062 0 0 0.860668 0 1.92133C0 2.98199 0.86062 3.86066 1.92122 3.86066C2.98182 3.86066 3.84244 2.98199 3.84244 1.92133C3.84177 0.860668 2.98115 0 1.92122 0Z" fill="black"/>
</svg>
