<svg width="18" height="15" viewBox="0 0 18 15" fill="none" xmlns="http://www.w3.org/2000/svg">
<path d="M18 1.77553C17.3375 2.07726 16.6258 2.28029 15.8789 2.37187C16.6417 1.90332 17.2268 1.16145 17.5022 0.276872C16.7892 0.710642 15.9986 1.02585 15.1568 1.19623C14.4833 0.460033 13.5237 0 12.4617 0C10.4223 0 8.76913 1.69603 8.76913 3.78675C8.76913 4.08351 8.80236 4.37316 8.86466 4.64931C5.79577 4.49171 3.07511 2.98382 1.25303 0.692179C0.935956 1.25161 0.753895 1.9019 0.753895 2.59692C0.753895 3.91028 1.40532 5.0696 2.39598 5.74828C1.79093 5.72841 1.22118 5.55803 0.72343 5.27476C0.72343 5.2911 0.72343 5.30601 0.72343 5.32233C0.72343 7.15749 1.99585 8.6881 3.6857 9.03525C3.37625 9.12186 3.0495 9.16801 2.71236 9.16801C2.4749 9.16801 2.24299 9.14387 2.01799 9.10056C2.48806 10.6049 3.85185 11.7003 5.46763 11.7308C4.20422 12.7467 2.61197 13.3523 0.88127 13.3523C0.583593 13.3523 0.289369 13.3345 0 13.2991C1.63448 14.3732 3.57494 15 5.66078 15C12.4534 15 16.1668 9.22977 16.1668 4.22549C16.1668 4.06149 16.1634 3.89822 16.1564 3.73564C16.8785 3.20106 17.5051 2.53444 18 1.77553Z" fill="black"/>
</svg>
