<svg width="16" height="14" viewBox="0 0 16 14" fill="none" xmlns="http://www.w3.org/2000/svg">
<path d="M16 1.6574C15.4113 1.93878 14.7787 2.12828 14.1147 2.2137C14.7927 1.77656 15.3133 1.08388 15.558 0.258409C14.924 0.663249 14.2213 0.957547 13.4733 1.11618C12.8753 0.429245 12.0213 0 11.0773 0C8.958 0 7.40067 2.129 7.87933 4.33911C5.152 4.19196 2.73333 2.78507 1.114 0.646739C0.254 2.23523 0.668 4.31327 2.12933 5.36556C1.592 5.3469 1.08533 5.18827 0.643333 4.9234C0.607333 6.5607 1.69733 8.09249 3.276 8.43345C2.814 8.56839 2.308 8.59998 1.79333 8.49374C2.21067 9.89776 3.42267 10.9192 4.86 10.9479C3.48 12.1129 1.74133 12.6333 0 12.4122C1.45267 13.415 3.17867 14 5.032 14C11.1267 14 14.57 8.45785 14.362 3.48708C15.0033 2.98821 15.56 2.36587 16 1.6574Z" fill="black"/>
</svg>
