<svg width="16" height="16" viewBox="0 0 16 16" fill="none" xmlns="http://www.w3.org/2000/svg">
<rect width="16" height="16" fill="white"/>
<path d="M16 2.6574C15.4113 2.93878 14.7787 3.12828 14.1147 3.2137C14.7927 2.77656 15.3133 2.08388 15.558 1.25841C14.924 1.66325 14.2213 1.95755 13.4733 2.11618C12.8753 1.42925 12.0213 1 11.0773 1C8.958 1 7.40067 3.129 7.87933 5.33911C5.152 5.19196 2.73333 3.78507 1.114 1.64674C0.254 3.23523 0.668 5.31327 2.12933 6.36556C1.592 6.3469 1.08533 6.18827 0.643333 5.9234C0.607333 7.5607 1.69733 9.09249 3.276 9.43345C2.814 9.56839 2.308 9.59998 1.79333 9.49374C2.21067 10.8978 3.42267 11.9192 4.86 11.9479C3.48 13.1129 1.74133 13.6333 0 13.4122C1.45267 14.415 3.17867 15 5.032 15C11.1267 15 14.57 9.45785 14.362 4.48708C15.0033 3.98821 15.56 3.36587 16 2.6574Z" fill="black"/>
</svg>
